<svg width="94" height="12" viewBox="0 0 94 12" fill="none" xmlns="http://www.w3.org/2000/svg">
<path opacity="0.6" d="M2.51997 12H0.151978V0.592041H10.28V12H7.91198V2.73604H2.51997V12ZM22.6215 4.52804C22.6215 5.79737 22.1948 6.76804 21.3415 7.44004C20.4988 8.11204 19.2775 8.44271 17.6775 8.43204H14.9095V12H12.6055V0.592041H17.5175C19.2242 0.592041 20.4988 0.922708 21.3415 1.58404C22.1948 2.23471 22.6215 3.21604 22.6215 4.52804ZM20.2695 4.51204C20.2695 3.84004 20.0508 3.34937 19.6135 3.04004C19.1762 2.73071 18.4828 2.57604 17.5335 2.57604H14.9095V6.44804H17.5975C18.5148 6.44804 19.1868 6.29337 19.6135 5.98404C20.0508 5.66404 20.2695 5.17337 20.2695 4.51204ZM34.083 12H31.667L30.627 9.47204H25.395L24.403 12H21.955L26.755 0.592041H29.187L34.083 12ZM26.163 7.53604H29.827L27.971 2.99204L26.163 7.53604ZM37.661 12H35.3086V0.592041H37.661V5.10404H39.853L43.453 0.592041H46.141L41.789 6.01604L46.301 12H43.533L39.981 7.23204H37.661V12ZM52.449 2.67204V12H50.017V2.67204H46.449V0.592041H56.017V2.67204H52.449ZM68.068 0.592041V12H65.7V5.05604L65.78 3.71204L65.044 5.05604L60.116 12H57.652V0.592041H60.02V7.56804L59.972 8.92804L60.612 7.68004L65.588 0.592041H68.068ZM72.739 12H70.387V0.592041H72.739V5.10404H74.931L78.531 0.592041H81.219L76.867 6.01604L81.379 12H78.611L75.059 7.23204H72.739V12ZM93.708 12H91.292L90.252 9.47204H85.02L84.028 12H81.58L86.38 0.592041H88.812L93.708 12ZM85.788 7.53604H89.452L87.596 2.99204L85.788 7.53604Z" fill="#1F1F1F"/>
</svg>
