<svg width="113" height="32" viewBox="0 0 113 32" fill="none" xmlns="http://www.w3.org/2000/svg">
<path d="M39.9578 11.7778H35.5388V7.68889C35.5388 5.28889 34.3014 3.86667 32.2687 3.86667C30.2359 3.86667 29.0428 5.28889 29.0428 7.68889V9.42222C29.0428 11.8222 29.8824 12.9333 33.3734 14.3556L35.1411 15.0222C38.7204 16.4 40.0462 18.5778 40.0462 23.1556V24C40.0462 29.0225 37.1296 32 32.2245 32C27.3194 32 24.5354 29.0667 24.5354 24V20.2222H28.9544V24.3111C28.9544 26.7111 30.1917 28.1333 32.2687 28.1333C34.3898 28.1333 35.6272 26.7111 35.6272 24.3111V22.4444C35.6272 20.0444 34.7433 18.9333 31.3849 17.5556L29.4405 16.8444C25.9937 15.4667 24.6238 13.1556 24.6238 8.66667V8C24.6238 2.88889 27.4078 0 32.2245 0C37.0854 0 39.9578 2.97778 39.9578 8V11.7778Z" fill="#1F1F1F"/>
<path d="M55.841 0.444824V4.31149H50.7594V31.5559H46.3404V4.31149H41.2585V0.444824H55.841Z" fill="#1F1F1F"/>
<path d="M57.637 0.444824H65.0163C69.5237 0.444824 72.8822 2.71149 72.8822 8.13371V23.8671C72.8822 29.3337 69.5237 31.5559 65.0163 31.5559H57.637V0.444824ZM62.0555 4.31149V27.6893H64.9721C66.8281 27.6893 68.4189 26.8004 68.4189 23.9115V8.08927C68.4189 5.20038 66.8281 4.31149 64.9721 4.31149H62.0555Z" fill="#1F1F1F"/>
<path d="M79.6185 0.399902V14.0443H80.3256L85.2307 0.399902H89.9591L83.9492 15.9999L90.6661 31.5555H85.9378L80.3256 17.9555H79.6185V31.5555H75.1995V0.399902H79.6185Z" fill="#1F1F1F"/>
<path d="M92.2024 0.444824H96.6214V31.5559H92.2024V0.444824Z" fill="#1F1F1F"/>
<path d="M112.762 0.444824V4.31149H107.68V31.5559H103.261V4.31149H98.179V0.444824H112.762Z" fill="#1F1F1F"/>
<path d="M6.86523 31.5558L18.379 0.483887H22.6555L11.1418 31.5558H6.86523Z" fill="#1F1F1F"/>
<path d="M0 31.5558L11.5138 0.483887H15.7903L4.27654 31.5558H0Z" fill="#1F1F1F"/>
</svg>
