<svg width="24" height="24" viewBox="0 0 24 24" fill="none" xmlns="http://www.w3.org/2000/svg">
<g clip-path="url(#clip0_417_613)">
<path d="M5.41267 -0.000281099C4.08273 -0.000281099 3.00012 1.11278 3.00012 2.47911V21.5201C3.00012 22.8865 4.08273 23.9995 5.41267 23.9995H19.5845C20.9144 23.9995 21.997 22.8865 21.997 21.5201V5.86312C21.997 5.86312 22.035 5.40465 21.8413 4.95851C21.6597 4.54032 21.3637 4.24926 21.3637 4.24926C21.363 4.24823 21.3623 4.2472 21.3615 4.24618L17.8455 0.70289C17.8435 0.700869 17.8416 0.698868 17.8396 0.696888C17.8396 0.696888 17.5394 0.403207 17.0944 0.207019C16.5704 -0.0239825 16.0304 0.000402731 16.0304 0.000402731L16.0384 -0.000366211L5.41267 -0.000281099Z" fill="#FF2116"/>
<path d="M5.41261 0.814392H16.0384C16.041 0.81442 16.0437 0.81442 16.0464 0.814392C16.0464 0.814392 16.4713 0.818623 16.7821 0.955643C17.0812 1.08752 17.2933 1.28715 17.2947 1.28849C17.2947 1.28849 17.2962 1.29002 17.2962 1.29002L20.8035 4.82504C20.8035 4.82504 21.0148 5.05425 21.1172 5.29012C21.1999 5.48051 21.205 5.82883 21.205 5.82883C21.2046 5.83458 21.2044 5.84034 21.2042 5.8461V21.5204C21.2042 22.4498 20.489 23.1854 19.5844 23.1854H5.41261C4.50803 23.1854 3.79279 22.4498 3.79279 21.5204V2.47938C3.79279 1.54997 4.50803 0.814392 5.41261 0.814392Z" fill="#F5F5F5"/>
<path d="M7.74347 14.2893C7.19805 13.7289 7.78815 12.9589 9.38962 12.1412L10.3973 11.6267L10.7898 10.7443C11.0058 10.2589 11.328 9.46699 11.5059 8.98443L11.8295 8.10704L11.6065 7.45772C11.3324 6.65932 11.2346 5.45954 11.4086 5.02812C11.6442 4.44375 12.4159 4.50371 12.7214 5.13012C12.96 5.61934 12.9356 6.50531 12.6528 7.62265L12.4209 8.53867L12.6251 8.8949C12.7375 9.09083 13.0656 9.55605 13.3543 9.92871L13.897 10.6222L14.5722 10.5317C16.7173 10.2441 17.452 10.7328 17.452 11.4336C17.452 12.3181 15.7676 12.3911 14.3532 11.3705C14.035 11.1408 13.8164 10.9127 13.8164 10.9127C13.8164 10.9127 12.9303 11.098 12.4941 11.2188C12.0437 11.3435 11.8191 11.4216 11.1594 11.6504C11.1594 11.6504 10.928 11.9957 10.7772 12.2468C10.216 13.1807 9.5609 13.9547 9.09302 14.2364C8.56916 14.5519 8.01997 14.5734 7.74347 14.2893ZM8.59942 13.9751C8.90601 13.7804 9.52655 13.0264 9.95611 12.3265L10.13 12.0432L9.33813 12.4523C8.11506 13.0841 7.55552 13.6795 7.84648 14.0397C8.00993 14.242 8.20545 14.2253 8.59942 13.9751ZM16.544 11.684C16.8439 11.4682 16.8003 11.0334 16.4613 10.858C16.1975 10.7216 15.9848 10.6936 15.2994 10.7039C14.8782 10.7335 14.2009 10.8207 14.0862 10.8472C14.0862 10.8472 14.4582 11.1114 14.6234 11.2085C14.8433 11.3375 15.3777 11.5771 15.7678 11.6998C16.1527 11.8208 16.3753 11.808 16.544 11.684ZM13.3496 10.32C13.1681 10.124 12.8595 9.71488 12.6638 9.41089C12.4079 9.06605 12.2795 8.82276 12.2795 8.82276C12.2795 8.82276 12.0925 9.44092 11.939 9.81291L11.4602 11.0288L11.3214 11.3046C11.3214 11.3046 12.0594 11.056 12.4349 10.9552C12.8326 10.8485 13.6397 10.6854 13.6397 10.6854L13.3496 10.32ZM12.3201 6.07856C12.3664 5.67945 12.3861 5.28094 12.2613 5.07998C11.9151 4.69115 11.4972 5.0154 11.568 5.93981C11.5918 6.25078 11.667 6.78239 11.7675 7.11005L11.9503 7.70578L12.079 7.25709C12.1497 7.01031 12.2583 6.47997 12.3201 6.07856Z" fill="#FF2116"/>
<path d="M8.67102 16.8842H9.55653C9.83947 16.8842 10.0691 16.912 10.2456 16.9676C10.422 17.0214 10.5704 17.1425 10.6909 17.331C10.8114 17.5176 10.8717 17.7428 10.8717 18.0066C10.8717 18.2488 10.8228 18.457 10.725 18.631C10.6272 18.8051 10.4953 18.9307 10.3294 19.0078C10.1652 19.085 9.91196 19.1236 9.56963 19.1236H9.26311V20.5582H8.67102V16.8842ZM9.26311 17.3552V18.6364H9.55653C9.81851 18.6364 9.99928 18.5862 10.0988 18.4857C10.2001 18.3852 10.2508 18.2219 10.2508 17.9958C10.2508 17.8271 10.2176 17.6907 10.1512 17.5867C10.0849 17.4808 10.0115 17.4162 9.93117 17.3929C9.85257 17.3677 9.72769 17.3552 9.55653 17.3552L9.26311 17.3552ZM11.3249 16.8842H12.1292C12.5187 16.8842 12.8296 16.955 13.0619 17.0968C13.2959 17.2385 13.4723 17.4494 13.5911 17.7293C13.7116 18.0093 13.7719 18.3197 13.7719 18.6606C13.7719 19.0195 13.7177 19.3398 13.6094 19.6215C13.5029 19.9015 13.3387 20.1276 13.1169 20.2998C12.8968 20.4721 12.5825 20.5582 12.1738 20.5582H11.3249V16.8842ZM11.917 17.3713V20.071H12.1633C12.5074 20.071 12.7571 19.949 12.9126 19.705C13.068 19.4591 13.1457 19.1317 13.1457 18.7225C13.1457 17.8217 12.8182 17.3713 12.1633 17.3713H11.917ZM14.3404 16.8842H16.3262V17.3713H14.9325V18.4695H16.0485V18.9567H14.9325V20.5582H14.3404V16.8842Z" fill="#1F1F1F"/>
</g>
<defs>
<clipPath id="clip0_417_613">
<rect width="19" height="24" fill="white" transform="translate(3)"/>
</clipPath>
</defs>
</svg>
