<svg width="24" height="24" viewBox="0 0 24 24" fill="none" xmlns="http://www.w3.org/2000/svg">
<path d="M21.6045 2.25H7.27872C7.16132 2.2499 7.04505 2.27293 6.93655 2.31777C6.82804 2.3626 6.72943 2.42837 6.64635 2.51132C6.56326 2.59426 6.49733 2.69276 6.45231 2.80119C6.40729 2.90962 6.38407 3.02585 6.38397 3.14325V7.125L14.6857 9.5625L22.5 7.125V3.14325C22.4999 3.02579 22.4766 2.90949 22.4316 2.80102C22.3865 2.69254 22.3205 2.59401 22.2373 2.51105C22.1542 2.4281 22.0555 2.36234 21.9469 2.31755C21.8383 2.27276 21.7219 2.2498 21.6045 2.25Z" fill="#41A5EE"/>
<path d="M22.5 7.125H6.38397V12L14.6857 13.4625L22.5 12V7.125Z" fill="#2B7CD3"/>
<path d="M6.38397 12V16.875L14.1975 17.85L22.5 16.875V12H6.38397Z" fill="#185ABD"/>
<path d="M7.27872 21.75H21.6037C21.7212 21.7503 21.8377 21.7274 21.9464 21.6827C22.055 21.6379 22.1538 21.5722 22.2371 21.4892C22.3203 21.4062 22.3864 21.3077 22.4315 21.1992C22.4766 21.0906 22.4999 20.9743 22.5 20.8568V16.875H6.38397V20.8568C6.38407 20.9742 6.40729 21.0904 6.45231 21.1988C6.49733 21.3072 6.56326 21.4057 6.64635 21.4887C6.72943 21.5716 6.82804 21.6374 6.93655 21.6822C7.04505 21.7271 7.16132 21.7501 7.27872 21.75Z" fill="#103F91"/>
<path opacity="0.1" d="M12.3255 6.14999H6.38397V18.3375H12.3255C12.5622 18.3363 12.789 18.2419 12.9566 18.0747C13.1242 17.9075 13.2192 17.681 13.221 17.4442V7.04324C13.2192 6.8065 13.1242 6.57999 12.9566 6.41279C12.789 6.24559 12.5622 6.15117 12.3255 6.14999Z" fill="#1F1F1F"/>
<path opacity="0.2" d="M11.8372 6.63751H6.38397V18.825H11.8372C12.074 18.8238 12.3007 18.7294 12.4683 18.5622C12.636 18.395 12.7309 18.1685 12.7327 17.9318V7.53076C12.7309 7.29402 12.636 7.0675 12.4683 6.90031C12.3007 6.73311 12.074 6.63869 11.8372 6.63751Z" fill="#1F1F1F"/>
<path opacity="0.2" d="M11.8372 6.63751H6.38397V17.85H11.8372C12.074 17.8488 12.3007 17.7544 12.4683 17.5872C12.636 17.42 12.7309 17.1935 12.7327 16.9568V7.53076C12.7309 7.29402 12.636 7.0675 12.4683 6.90031C12.3007 6.73311 12.074 6.63869 11.8372 6.63751Z" fill="#1F1F1F"/>
<path opacity="0.2" d="M11.349 6.63751H6.38397V17.85H11.349C11.5857 17.8488 11.8125 17.7544 11.9801 17.5872C12.1477 17.42 12.2427 17.1935 12.2445 16.9568V7.53076C12.2427 7.29402 12.1477 7.0675 11.9801 6.90031C11.8125 6.73311 11.5857 6.63869 11.349 6.63751Z" fill="#1F1F1F"/>
<path d="M2.3955 6.63751H11.349C11.5862 6.63731 11.8137 6.73129 11.9816 6.89878C12.1496 7.06628 12.2441 7.29359 12.2445 7.53076V16.4693C12.2441 16.7064 12.1496 16.9337 11.9816 17.1012C11.8137 17.2687 11.5862 17.3627 11.349 17.3625H2.3955C2.27804 17.3627 2.16168 17.3398 2.05309 17.295C1.9445 17.2502 1.84581 17.1844 1.76264 17.1015C1.67948 17.0185 1.61348 16.92 1.56841 16.8115C1.52334 16.703 1.5001 16.5867 1.5 16.4693V7.53076C1.5001 7.4133 1.52334 7.297 1.56841 7.18853C1.61348 7.08005 1.67948 6.98152 1.76264 6.89856C1.84581 6.81561 1.9445 6.74985 2.05309 6.70506C2.16168 6.66027 2.27804 6.63732 2.3955 6.63751Z" fill="url(#paint0_linear_422_72)"/>
<path d="M5.17502 13.491C5.19227 13.629 5.20427 13.749 5.20952 13.8517H5.23052C5.23802 13.7542 5.25452 13.6365 5.27927 13.4992C5.30402 13.362 5.32577 13.2457 5.34602 13.1505L6.28727 9.09525H7.50527L8.48027 13.0897C8.53706 13.3368 8.57764 13.5874 8.60177 13.8397H8.61827C8.63618 13.5941 8.67 13.3498 8.71952 13.1085L9.49877 9.09H10.6065L9.23852 14.901H7.94327L7.01552 11.0565C6.98852 10.9455 6.95802 10.801 6.92402 10.623C6.89002 10.445 6.86902 10.315 6.86102 10.233H6.84527C6.83477 10.3275 6.81377 10.4677 6.78227 10.6537C6.75077 10.8405 6.72602 10.9777 6.70727 11.0677L5.83502 14.9032H4.51802L3.14252 9.09525H4.26752L5.11577 13.1587C5.14108 13.2684 5.16086 13.3793 5.17502 13.491Z" fill="white"/>
<defs>
<linearGradient id="paint0_linear_422_72" x1="3.3705" y1="5.93551" x2="10.374" y2="18.0645" gradientUnits="userSpaceOnUse">
<stop stop-color="#2368C4"/>
<stop offset="0.5" stop-color="#1A5DBE"/>
<stop offset="1" stop-color="#1146AC"/>
</linearGradient>
</defs>
</svg>
