<?xml version="1.0"?>
<svg xmlns="http://www.w3.org/2000/svg" xmlns:xlink="http://www.w3.org/1999/xlink" version="1.1" xml:space="preserve">
  <defs>

    <symbol id="logo" width="100%" height="100%" viewBox="0 0 113 32">
      <path d="M39.9578 11.7778H35.5388V7.68889C35.5388 5.28889 34.3014 3.86667 32.2687 3.86667C30.2359 3.86667 29.0428 5.28889 29.0428 7.68889V9.42222C29.0428 11.8222 29.8824 12.9333 33.3734 14.3556L35.1411 15.0222C38.7204 16.4 40.0462 18.5778 40.0462 23.1556V24C40.0462 29.0225 37.1296 32 32.2245 32C27.3194 32 24.5354 29.0667 24.5354 24V20.2222H28.9544V24.3111C28.9544 26.7111 30.1917 28.1333 32.2687 28.1333C34.3898 28.1333 35.6272 26.7111 35.6272 24.3111V22.4444C35.6272 20.0444 34.7433 18.9333 31.3849 17.5556L29.4405 16.8444C25.9937 15.4667 24.6238 13.1556 24.6238 8.66667V8C24.6238 2.88889 27.4078 0 32.2245 0C37.0854 0 39.9578 2.97778 39.9578 8V11.7778Z" fill="currentColor" />
      <path d="M55.841 0.444824V4.31149H50.7594V31.5559H46.3404V4.31149H41.2585V0.444824H55.841Z" fill="currentColor" />
      <path d="M57.637 0.444824H65.0163C69.5237 0.444824 72.8822 2.71149 72.8822 8.13371V23.8671C72.8822 29.3337 69.5237 31.5559 65.0163 31.5559H57.637V0.444824ZM62.0555 4.31149V27.6893H64.9721C66.8281 27.6893 68.4189 26.8004 68.4189 23.9115V8.08927C68.4189 5.20038 66.8281 4.31149 64.9721 4.31149H62.0555Z" fill="currentColor" />
      <path d="M79.6185 0.399902V14.0443H80.3256L85.2307 0.399902H89.9591L83.9492 15.9999L90.6661 31.5555H85.9378L80.3256 17.9555H79.6185V31.5555H75.1995V0.399902H79.6185Z" fill="currentColor" />
      <path d="M92.2024 0.444824H96.6214V31.5559H92.2024V0.444824Z" fill="currentColor" />
      <path d="M112.762 0.444824V4.31149H107.68V31.5559H103.261V4.31149H98.179V0.444824H112.762Z" fill="currentColor" />
      <path d="M6.86523 31.5558L18.379 0.483887H22.6555L11.1418 31.5558H6.86523Z" fill="currentColor" />
      <path d="M0 31.5558L11.5138 0.483887H15.7903L4.27654 31.5558H0Z" fill="currentColor" />
    </symbol>

    <symbol id="loader" width="100%" height="100%" viewBox="22 22 44 44">
      <circle cx="44" cy="44" r="20.2" fill="transparent" stroke="currentColor" stroke-width="4"></circle>
    </symbol>

    <symbol id="eye-hidden" width="100%" height="100%" viewBox="0 0 24 24">
      <path fill-rule="evenodd" clip-rule="evenodd" d="M18.2371 15.1157C19.0484 14.3833 19.7137 13.6416 20.188 13.0657C20.5762 12.5944 20.7703 12.3588 20.7703 12C20.7703 11.6412 20.5762 11.4056 20.188 10.9343C18.768 9.21014 15.6357 6 12 6C11.1605 6 10.3479 6.17115 9.57695 6.45563L12.1238 9.00251C13.6822 9.06577 14.9342 10.3178 14.9975 11.8762L18.2371 15.1157ZM9.39308 10.5144C9.14295 10.9524 9.00001 11.4595 9.00001 12C9.00001 13.6569 10.3432 15 12 15C12.5405 15 13.0476 14.8571 13.4856 14.6069L15.7872 16.9085C14.636 17.5555 13.3529 18 12 18C8.36428 18 5.23207 14.7899 3.81198 13.0657C3.42382 12.5944 3.22974 12.3588 3.22974 12C3.22974 11.6412 3.42382 11.4056 3.81198 10.9343C4.48541 10.1167 5.54385 8.96489 6.85842 7.97974L9.39308 10.5144Z" fill="currentColor" />
      <path d="M5 2L21 18" fill="transparent" stroke="currentColor" stroke-width="2" />
    </symbol>

    <symbol id="eye-visible" width="100%" height="100%" viewBox="0 0 24 24">
      <path fill-rule="evenodd" clip-rule="evenodd" d="M20.7703 12C20.7703 11.6412 20.5762 11.4056 20.188 10.9343C18.768 9.21014 15.6357 6 12 6C8.36428 6 5.23207 9.21014 3.81198 10.9343C3.42382 11.4056 3.22974 11.6412 3.22974 12C3.22974 12.3588 3.42382 12.5944 3.81198 13.0657C5.23207 14.7899 8.36428 18 12 18C15.6357 18 18.768 14.7899 20.188 13.0657C20.5762 12.5944 20.7703 12.3588 20.7703 12ZM12 15C13.6569 15 15 13.6569 15 12C15 10.3431 13.6569 9 12 9C10.3432 9 9.00002 10.3431 9.00002 12C9.00002 13.6569 10.3432 15 12 15Z" fill="currentColor" />
    </symbol>

    <symbol id="users" width="100%" height="100%" viewBox="0 0 24 25">
      <circle cx="9" cy="6.5" r="4" fill="transparent" stroke="currentColor" stroke-width="1.5" />
      <path d="M15 9.5C16.6569 9.5 18 8.15685 18 6.5C18 4.84315 16.6569 3.5 15 3.5" fill="transparent" stroke="currentColor" stroke-width="1.5" stroke-linecap="round" />
      <ellipse cx="9" cy="17.5" rx="7" ry="4" fill="transparent" stroke="currentColor" stroke-width="1.5" />
      <path d="M18 14.5C19.7542 14.8847 21 15.8589 21 17C21 18.0293 19.9863 18.9229 18.5 19.3704" fill="transparent" stroke="currentColor" stroke-width="1.5" stroke-linecap="round" />
    </symbol>

    <symbol id="notification" width="100%" height="100%" viewBox="0 0 24 25">
      <path d="M22 11V12.5C22 17.214 22 19.5711 20.5355 21.0355C19.0711 22.5 16.714 22.5 12 22.5C7.28595 22.5 4.92893 22.5 3.46447 21.0355C2 19.5711 2 17.214 2 12.5C2 7.78595 2 5.42893 3.46447 3.96447C4.92893 2.5 7.28595 2.5 12 2.5H13.5" fill="transparent" stroke="currentColor" stroke-width="1.5" stroke-linecap="round" />
      <circle cx="19" cy="5.5" r="3" fill="transparent" stroke="currentColor" stroke-width="1.5" />
      <path d="M7 14.5H16" fill="transparent" stroke="currentColor" stroke-width="1.5" stroke-linecap="round" />
      <path d="M7 18H13" fill="transparent" stroke="currentColor" stroke-width="1.5" stroke-linecap="round" />
    </symbol>

    <symbol id="user" width="100%" height="100%" viewBox="0 0 20 20">
      <path d="M16.3763 17.0045C16.837 16.9085 17.1114 16.4264 16.8825 16.0153C16.3778 15.1089 15.5828 14.3124 14.5658 13.7054C13.2559 12.9237 11.6511 12.5 10.0001 12.5C8.34905 12.5 6.74418 12.9237 5.43435 13.7054C4.41732 14.3124 3.6223 15.1089 3.11765 16.0153C2.88873 16.4264 3.1631 16.9085 3.62378 17.0045C7.82945 17.881 12.1707 17.881 16.3763 17.0045Z" fill="currentColor" />
      <circle cx="10" cy="6.66667" r="4.16667" fill="currentColor" />
    </symbol>

    <symbol id="settings" width="100%" height="100%" viewBox="0 0 20 20">
      <path opacity="0.5" fill-rule="evenodd" clip-rule="evenodd" d="M10.3564 1.6665C9.42824 1.6665 8.58294 2.16709 6.89234 3.16827L6.32055 3.50688C4.62995 4.50806 3.78465 5.00865 3.32055 5.83317C2.85645 6.6577 2.85645 7.65887 2.85645 9.66122V10.3385C2.85645 12.3408 2.85645 13.342 3.32055 14.1665C3.78465 14.991 4.62995 15.4916 6.32055 16.4928L6.89234 16.8314C8.58294 17.8326 9.42824 18.3332 10.3564 18.3332C11.2846 18.3332 12.1299 17.8326 13.8205 16.8314L14.3923 16.4928C16.0829 15.4916 16.9282 14.991 17.3923 14.1665C17.8564 13.342 17.8564 12.3408 17.8564 10.3385V9.66122C17.8564 7.65887 17.8564 6.6577 17.3923 5.83317C16.9282 5.00865 16.0829 4.50806 14.3923 3.50688L13.8205 3.16827C12.1299 2.16709 11.2846 1.6665 10.3564 1.6665Z" fill="currentColor" />
      <path d="M10.3564 6.875C8.63056 6.875 7.23145 8.27411 7.23145 10C7.23145 11.7259 8.63056 13.125 10.3564 13.125C12.0823 13.125 13.4814 11.7259 13.4814 10C13.4814 8.27411 12.0823 6.875 10.3564 6.875Z" fill="currentColor" />
    </symbol>

    <symbol id="lock" width="100%" height="100%" viewBox="0 0 24 24">
      <path opacity="0.5" d="M2 16C2 13.1716 2 11.7574 2.87868 10.8787C3.75736 10 5.17157 10 8 10H16C18.8284 10 20.2426 10 21.1213 10.8787C22 11.7574 22 13.1716 22 16C22 18.8284 22 20.2426 21.1213 21.1213C20.2426 22 18.8284 22 16 22H8C5.17157 22 3.75736 22 2.87868 21.1213C2 20.2426 2 18.8284 2 16Z" fill="currentColor" />
      <path d="M12 18C13.1046 18 14 17.1046 14 16C14 14.8954 13.1046 14 12 14C10.8954 14 10 14.8954 10 16C10 17.1046 10.8954 18 12 18Z" fill="currentColor" />
      <path d="M6.75 8C6.75 5.10051 9.10051 2.75 12 2.75C14.4453 2.75 16.5018 4.42242 17.0846 6.68694C17.1879 7.08808 17.5968 7.32957 17.9979 7.22633C18.3991 7.12308 18.6405 6.7142 18.5373 6.31306C17.788 3.4019 15.1463 1.25 12 1.25C8.27208 1.25 5.25 4.27208 5.25 8V10.0546C5.68651 10.022 6.18264 10.0089 6.75 10.0036V8Z" fill="currentColor" />
    </symbol>

    <symbol id="arrow-left" width="100%" height="100%" viewBox="0 0 11 18">
      <path d="M3.76777 9L9.88388 2.88388C10.372 2.39573 10.372 1.60427 9.88388 1.11612C9.39573 0.627961 8.60427 0.627961 8.11612 1.11612L1.11612 8.11612C0.62796 8.60427 0.62796 9.39573 1.11612 9.88388L8.11612 16.8839C8.60427 17.372 9.39573 17.372 9.88388 16.8839C10.372 16.3957 10.372 15.6043 9.88388 15.1161L3.76777 9Z" fill="currentColor" />
    </symbol>

    <symbol id="arrow-right" width="100%" height="100%" viewBox="0 0 11 18">
      <path d="M7.23223 9L1.11612 2.88388C0.627961 2.39573 0.627961 1.60427 1.11612 1.11612C1.60427 0.627961 2.39573 0.627961 2.88388 1.11612L9.88388 8.11612C10.372 8.60427 10.372 9.39573 9.88388 9.88388L2.88388 16.8839C2.39573 17.372 1.60427 17.372 1.11612 16.8839C0.627961 16.3957 0.627961 15.6043 1.11612 15.1161L7.23223 9Z" fill="currentColor" />
    </symbol>

    <symbol id="arrow-back" width="100%" height="100%" viewBox="0 0 20 20">
      <path opacity="0.5" d="M10.0001 18.3332C5.39771 18.3332 1.66675 14.6022 1.66675 9.99984C1.66675 5.39746 5.39771 1.6665 10.0001 1.6665C14.6025 1.6665 18.3334 5.39746 18.3334 9.99984C18.3334 14.6022 14.6025 18.3332 10.0001 18.3332Z" fill="currentColor" />
      <path d="M8.72481 7.05806C8.96888 6.81398 9.36461 6.81398 9.60869 7.05806C9.85277 7.30214 9.85277 7.69786 9.60869 7.94194L8.17563 9.375H13.3334C13.6786 9.375 13.9584 9.65482 13.9584 10C13.9584 10.3452 13.6786 10.625 13.3334 10.625H8.17563L9.60869 12.0581C9.85277 12.3021 9.85277 12.6979 9.60869 12.9419C9.36461 13.186 8.96888 13.186 8.72481 12.9419L6.22481 10.4419C5.98073 10.1979 5.98073 9.80214 6.22481 9.55806L8.72481 7.05806Z" fill="currentColor" />
    </symbol>

    <symbol id="trash" width="100%" height="100%" viewBox="0 0 24 24">
      <path d="M3 6.38597C3 5.90152 3.34538 5.50879 3.77143 5.50879L6.43567 5.50832C6.96502 5.49306 7.43202 5.11033 7.61214 4.54412C7.61688 4.52923 7.62232 4.51087 7.64185 4.44424L7.75665 4.05256C7.8269 3.81241 7.8881 3.60318 7.97375 3.41617C8.31209 2.67736 8.93808 2.16432 9.66147 2.03297C9.84457 1.99972 10.0385 1.99986 10.2611 2.00002H13.7391C13.9617 1.99986 14.1556 1.99972 14.3387 2.03297C15.0621 2.16432 15.6881 2.67736 16.0264 3.41617C16.1121 3.60318 16.1733 3.81241 16.2435 4.05256L16.3583 4.44424C16.3778 4.51087 16.3833 4.52923 16.388 4.54412C16.5682 5.11033 17.1278 5.49353 17.6571 5.50879H20.2286C20.6546 5.50879 21 5.90152 21 6.38597C21 6.87043 20.6546 7.26316 20.2286 7.26316H3.77143C3.34538 7.26316 3 6.87043 3 6.38597Z" fill="currentColor" />
      <path fill-rule="evenodd" clip-rule="evenodd" d="M9.42543 11.4815C9.83759 11.4381 10.2051 11.7547 10.2463 12.1885L10.7463 17.4517C10.7875 17.8855 10.4868 18.2724 10.0747 18.3158C9.66253 18.3592 9.29499 18.0426 9.25378 17.6088L8.75378 12.3456C8.71256 11.9118 9.01327 11.5249 9.42543 11.4815Z" fill="currentColor" />
      <path fill-rule="evenodd" clip-rule="evenodd" d="M14.5747 11.4815C14.9868 11.5249 15.2875 11.9118 15.2463 12.3456L14.7463 17.6088C14.7051 18.0426 14.3376 18.3592 13.9254 18.3158C13.5133 18.2724 13.2126 17.8855 13.2538 17.4517L13.7538 12.1885C13.795 11.7547 14.1625 11.4381 14.5747 11.4815Z" fill="currentColor" />
      <path opacity="0.5" d="M11.5956 22.0001H12.4044C15.1871 22.0001 16.5785 22.0001 17.4831 21.1142C18.3878 20.2283 18.4803 18.7751 18.6654 15.8686L18.9321 11.6807C19.0326 10.1037 19.0828 9.31524 18.6289 8.81558C18.1751 8.31592 17.4087 8.31592 15.876 8.31592H8.12405C6.59127 8.31592 5.82488 8.31592 5.37105 8.81558C4.91722 9.31524 4.96744 10.1037 5.06788 11.6807L5.33459 15.8686C5.5197 18.7751 5.61225 20.2283 6.51689 21.1142C7.42153 22.0001 8.81289 22.0001 11.5956 22.0001Z" fill="currentColor" />
    </symbol>

    <symbol id="hourglass" width="100%" height="100%" viewBox="0 0 18 18">
      <path fill-rule="evenodd" clip-rule="evenodd" d="M9 1.5C5.90023 1.5 4.35035 1.5 3.89869 2.47439C3.85986 2.55814 3.82711 2.64514 3.80074 2.73457C3.49392 3.77497 4.58986 4.98083 6.78173 7.39256L8.25 9H9.75L11.2183 7.39256C13.4101 4.98083 14.5061 3.77497 14.1993 2.73457C14.1729 2.64514 14.1401 2.55814 14.1013 2.47439C13.6497 1.5 12.0998 1.5 9 1.5Z" fill="currentColor" />
      <path opacity="0.5" d="M3.89869 15.5256C4.35035 16.5 5.90023 16.5 9 16.5C12.0998 16.5 13.6497 16.5 14.1013 15.5256C14.1401 15.4419 14.1729 15.3549 14.1993 15.2654C14.5061 14.225 13.4101 13.0192 11.2183 10.6074L9.75 9H8.25L6.78173 10.6074C4.58986 13.0192 3.49392 14.225 3.80074 15.2654C3.82711 15.3549 3.85986 15.4419 3.89869 15.5256Z" fill="currentColor" />
    </symbol>

    <symbol id="pallete" width="100%" height="100%" viewBox="0 0 20 20">
      <path opacity="0.5" d="M9.03907 18.2784C4.88936 17.8019 1.66675 14.2772 1.66675 9.99984C1.66675 5.39746 5.39771 1.6665 10.0001 1.6665C14.6025 1.6665 18.3334 5.39746 18.3334 9.99984C18.3334 14.297 15.5978 13.9436 13.2614 13.6417C11.9138 13.4677 10.6989 13.3107 10.2183 14.0731C9.88962 14.5945 10.2449 15.2447 10.6808 15.6805C11.2253 16.2251 11.2253 17.1079 10.6808 17.6525C10.2449 18.0883 9.65141 18.3487 9.03907 18.2784Z" fill="currentColor" />
      <path d="M9.23758 5.8335C9.23758 6.52385 8.67794 7.0835 7.98758 7.0835C7.29723 7.0835 6.73758 6.52385 6.73758 5.8335C6.73758 5.14314 7.29723 4.5835 7.98758 4.5835C8.67794 4.5835 9.23758 5.14314 9.23758 5.8335Z" fill="currentColor" />
      <path d="M5.41675 10.8337C6.1071 10.8337 6.66675 10.274 6.66675 9.58369C6.66675 8.89333 6.1071 8.33369 5.41675 8.33369C4.72639 8.33369 4.16675 8.89333 4.16675 9.58369C4.16675 10.274 4.72639 10.8337 5.41675 10.8337Z" fill="currentColor" />
      <path d="M14.5834 10.8337C15.2738 10.8337 15.8334 10.274 15.8334 9.58369C15.8334 8.89333 15.2738 8.33369 14.5834 8.33369C13.8931 8.33369 13.3334 8.89333 13.3334 9.58369C13.3334 10.274 13.8931 10.8337 14.5834 10.8337Z" fill="currentColor" />
      <path d="M12.0834 7.08369C12.7738 7.08369 13.3334 6.52404 13.3334 5.83369C13.3334 5.14333 12.7738 4.58369 12.0834 4.58369C11.3931 4.58369 10.8334 5.14333 10.8334 5.83369C10.8334 6.52404 11.3931 7.08369 12.0834 7.08369Z" fill="currentColor" />
    </symbol>

    <symbol id="search" width="100%" height="100%" viewBox="0 0 24 24">
      <circle cx="11.5" cy="11.5" r="9.5" fill="transparent" stroke="currentColor" stroke-width="1.5" />
      <path d="M18.5 18.5L22 22" fill="transparent" stroke="currentColor" stroke-width="1.5" stroke-linecap="round" />
    </symbol>

    <symbol id="filter" width="100%" height="100%" viewBox="0 0 24 24">
      <path d="M9.5 14C11.1569 14 12.5 15.3431 12.5 17C12.5 18.6568 11.1569 20 9.5 20C7.84315 20 6.5 18.6568 6.5 17C6.5 15.3431 7.84315 14 9.5 14Z" fill="transparent" stroke="currentColor" stroke-width="1.5" />
      <path d="M14.5 3.99998C12.8431 3.99998 11.5 5.34312 11.5 6.99998C11.5 8.65683 12.8431 9.99998 14.5 9.99998C16.1569 9.99998 17.5 8.65683 17.5 6.99998C17.5 5.34312 16.1569 3.99998 14.5 3.99998Z" fill="transparent" stroke="currentColor" stroke-width="1.5" />
      <path d="M15 16.9585L22 16.9585" fill="transparent" stroke="currentColor" stroke-width="1.5" stroke-linecap="round" />
      <path d="M9 6.9585L2 6.9585" fill="transparent" stroke="currentColor" stroke-width="1.5" stroke-linecap="round" />
      <path d="M2 16.9585L4 16.9585" fill="transparent" stroke="currentColor" stroke-width="1.5" stroke-linecap="round" />
      <path d="M22 6.9585L20 6.9585" fill="transparent" stroke="currentColor" stroke-width="1.5" stroke-linecap="round" />
    </symbol>

    <symbol id="pen" width="100%" height="100%" viewBox="0 0 20 20">
      <circle opacity="0.5" cx="9.99999" cy="9.99999" r="8.33333" fill="currentColor" />
      <path d="M11.6054 11.9182C11.8096 11.7589 11.9948 11.5738 12.3651 11.2034L16.9821 6.58646C17.0937 6.47484 17.0426 6.28259 16.8935 6.23085C16.3485 6.04177 15.6396 5.68679 14.9764 5.02364C14.3133 4.36048 13.9583 3.65156 13.7692 3.10658C13.7175 2.95744 13.5252 2.90636 13.4136 3.01798L8.79665 7.63494L8.79664 7.63495C8.4263 8.00529 8.24113 8.19046 8.08188 8.39464C7.89402 8.63548 7.73297 8.89608 7.60156 9.17182C7.49016 9.40556 7.40735 9.654 7.24172 10.1509L7.02771 10.7929L6.68742 11.8138L6.36834 12.771C6.28684 13.0155 6.35048 13.2851 6.53273 13.4674C6.71498 13.6496 6.98455 13.7132 7.22907 13.6317L8.1863 13.3127L9.20718 12.9724L9.84921 12.7584L9.84922 12.7584C10.3461 12.5927 10.5945 12.5099 10.8283 12.3985C11.104 12.2671 11.3646 12.1061 11.6054 11.9182Z" fill="currentColor" />
      <path d="M18.4277 5.14089C19.4131 4.15548 19.4131 2.55781 18.4277 1.5724C17.4423 0.586991 15.8446 0.586991 14.8592 1.5724L14.7108 1.72083C14.5675 1.86407 14.5026 2.06413 14.5384 2.26351C14.5609 2.38893 14.6027 2.5723 14.6786 2.7911C14.8304 3.22867 15.1171 3.80308 15.657 4.34305C16.197 4.88302 16.7714 5.16971 17.209 5.32152C17.4278 5.39743 17.6111 5.43915 17.7366 5.46166C17.9359 5.49745 18.136 5.43255 18.2792 5.28932L18.4277 5.14089Z" fill="currentColor" />
    </symbol>

    <symbol id="star" width="100%" height="100%" viewBox="0 0 55.867 55.867">
      <path d="M55.818,21.578c-0.118-0.362-0.431-0.626-0.808-0.681L36.92,18.268L28.83,1.876c-0.168-0.342-0.516-0.558-0.896-0.558 s-0.729,0.216-0.896,0.558l-8.091,16.393l-18.09,2.629c-0.377,0.055-0.689,0.318-0.808,0.681c-0.117,0.361-0.02,0.759,0.253,1.024 l13.091,12.76l-3.091,18.018c-0.064,0.375,0.09,0.754,0.397,0.978c0.309,0.226,0.718,0.255,1.053,0.076l16.182-8.506l16.18,8.506 c0.146,0.077,0.307,0.115,0.466,0.115c0.207,0,0.413-0.064,0.588-0.191c0.308-0.224,0.462-0.603,0.397-0.978l-3.09-18.017 l13.091-12.761C55.838,22.336,55.936,21.939,55.818,21.578z" fill="currentColor" />
    </symbol>

    <symbol id="calendar" width="100%" height="100%" viewBox="0 0 24 24">
      <path d="M2 9C2 7.11438 2 6.17157 2.58579 5.58579C3.17157 5 4.11438 5 6 5H18C19.8856 5 20.8284 5 21.4142 5.58579C22 6.17157 22 7.11438 22 9C22 9.4714 22 9.70711 21.8536 9.85355C21.7071 10 21.4714 10 21 10H3C2.5286 10 2.29289 10 2.14645 9.85355C2 9.70711 2 9.4714 2 9Z" fill="currentColor" />
      <path fill-rule="evenodd" clip-rule="evenodd" d="M2 18C2 19.8856 2 20.8284 2.58579 21.4142C3.17157 22 4.11438 22 6 22H18C19.8856 22 20.8284 22 21.4142 21.4142C22 20.8284 22 19.8856 22 18V13C22 12.5286 22 12.2929 21.8536 12.1464C21.7071 12 21.4714 12 21 12H3C2.5286 12 2.29289 12 2.14645 12.1464C2 12.2929 2 12.5286 2 13V18ZM7 15C7 14.5286 7 14.2929 7.14645 14.1464C7.29289 14 7.52859 14 8 14H10C10.4714 14 10.7071 14 10.8536 14.1464C11 14.2929 11 14.5286 11 15C11 15.4714 11 15.7071 10.8536 15.8536C10.7071 16 10.4714 16 10 16H8C7.52859 16 7.29289 16 7.14645 15.8536C7 15.7071 7 15.4714 7 15ZM7.14645 18.1464C7 18.2929 7 18.5286 7 19C7 19.4714 7 19.7071 7.14645 19.8536C7.29289 20 7.52859 20 8 20H10C10.4714 20 10.7071 20 10.8536 19.8536C11 19.7071 11 19.4714 11 19C11 18.5286 11 18.2929 10.8536 18.1464C10.7071 18 10.4714 18 10 18H8C7.52859 18 7.29289 18 7.14645 18.1464ZM13 15C13 14.5286 13 14.2929 13.1464 14.1464C13.2929 14 13.5286 14 14 14H16C16.4714 14 16.7071 14 16.8536 14.1464C17 14.2929 17 14.5286 17 15C17 15.4714 17 15.7071 16.8536 15.8536C16.7071 16 16.4714 16 16 16H14C13.5286 16 13.2929 16 13.1464 15.8536C13 15.7071 13 15.4714 13 15ZM13.1464 18.1464C13 18.2929 13 18.5286 13 19C13 19.4714 13 19.7071 13.1464 19.8536C13.2929 20 13.5286 20 14 20H16C16.4714 20 16.7071 20 16.8536 19.8536C17 19.7071 17 19.4714 17 19C17 18.5286 17 18.2929 16.8536 18.1464C16.7071 18 16.4714 18 16 18H14C13.5286 18 13.2929 18 13.1464 18.1464Z" fill="currentColor" />
      <path d="M7 3L7 6" fill="transparent" stroke="currentColor" stroke-width="2" stroke-linecap="round" />
      <path d="M17 3L17 6" fill="transparent" stroke="currentColor" stroke-width="2" stroke-linecap="round" />
    </symbol>

    <symbol id="close" width="100%" height="100%" viewBox="0 0 16 16">
      <path d="M1 15L15 1M1 1L15 15" fill="transparent" stroke="currentColor" stroke-width="2" stroke-linecap="round" stroke-linejoin="round" />
    </symbol>

  </defs>
</svg>