<?xml version="1.0"?>
<svg xmlns="http://www.w3.org/2000/svg" xmlns:xlink="http://www.w3.org/1999/xlink" version="1.1" xml:space="preserve">
  <defs>

    <symbol id="loader" width="100%" height="100%" viewBox="22 22 44 44">
      <circle cx="44" cy="44" r="20.2" fill="transparent" stroke="currentColor" stroke-width="4"></circle>
    </symbol>

    <symbol id="logo" width="100%" height="100%" viewBox="0 0 113 32">
      <path d="M39.9578 11.7778H35.5388V7.68889C35.5388 5.28889 34.3014 3.86667 32.2687 3.86667C30.2359 3.86667 29.0428 5.28889 29.0428 7.68889V9.42222C29.0428 11.8222 29.8824 12.9333 33.3734 14.3556L35.1411 15.0222C38.7204 16.4 40.0462 18.5778 40.0462 23.1556V24C40.0462 29.0225 37.1296 32 32.2245 32C27.3194 32 24.5354 29.0667 24.5354 24V20.2222H28.9544V24.3111C28.9544 26.7111 30.1917 28.1333 32.2687 28.1333C34.3898 28.1333 35.6272 26.7111 35.6272 24.3111V22.4444C35.6272 20.0444 34.7433 18.9333 31.3849 17.5556L29.4405 16.8444C25.9937 15.4667 24.6238 13.1556 24.6238 8.66667V8C24.6238 2.88889 27.4078 0 32.2245 0C37.0854 0 39.9578 2.97778 39.9578 8V11.7778Z" fill="currentColor" />
      <path d="M55.841 0.444824V4.31149H50.7594V31.5559H46.3404V4.31149H41.2585V0.444824H55.841Z" fill="currentColor" />
      <path d="M57.637 0.444824H65.0163C69.5237 0.444824 72.8822 2.71149 72.8822 8.13371V23.8671C72.8822 29.3337 69.5237 31.5559 65.0163 31.5559H57.637V0.444824ZM62.0555 4.31149V27.6893H64.9721C66.8281 27.6893 68.4189 26.8004 68.4189 23.9115V8.08927C68.4189 5.20038 66.8281 4.31149 64.9721 4.31149H62.0555Z" fill="currentColor" />
      <path d="M79.6185 0.399902V14.0443H80.3256L85.2307 0.399902H89.9591L83.9492 15.9999L90.6661 31.5555H85.9378L80.3256 17.9555H79.6185V31.5555H75.1995V0.399902H79.6185Z" fill="currentColor" />
      <path d="M92.2024 0.444824H96.6214V31.5559H92.2024V0.444824Z" fill="currentColor" />
      <path d="M112.762 0.444824V4.31149H107.68V31.5559H103.261V4.31149H98.179V0.444824H112.762Z" fill="currentColor" />
      <path d="M6.86523 31.5558L18.379 0.483887H22.6555L11.1418 31.5558H6.86523Z" fill="currentColor" />
      <path d="M0 31.5558L11.5138 0.483887H15.7903L4.27654 31.5558H0Z" fill="currentColor" />
    </symbol>

    <symbol id="practice" width="100%" height="100%" viewBox="0 0 94 12">
      <path d="M2.51997 12H0.151978V0.592041H10.28V12H7.91198V2.73604H2.51997V12ZM22.6215 4.52804C22.6215 5.79737 22.1948 6.76804 21.3415 7.44004C20.4988 8.11204 19.2775 8.44271 17.6775 8.43204H14.9095V12H12.6055V0.592041H17.5175C19.2242 0.592041 20.4988 0.922708 21.3415 1.58404C22.1948 2.23471 22.6215 3.21604 22.6215 4.52804ZM20.2695 4.51204C20.2695 3.84004 20.0508 3.34937 19.6135 3.04004C19.1762 2.73071 18.4828 2.57604 17.5335 2.57604H14.9095V6.44804H17.5975C18.5148 6.44804 19.1868 6.29337 19.6135 5.98404C20.0508 5.66404 20.2695 5.17337 20.2695 4.51204ZM34.083 12H31.667L30.627 9.47204H25.395L24.403 12H21.955L26.755 0.592041H29.187L34.083 12ZM26.163 7.53604H29.827L27.971 2.99204L26.163 7.53604ZM37.661 12H35.3086V0.592041H37.661V5.10404H39.853L43.453 0.592041H46.141L41.789 6.01604L46.301 12H43.533L39.981 7.23204H37.661V12ZM52.449 2.67204V12H50.017V2.67204H46.449V0.592041H56.017V2.67204H52.449ZM68.068 0.592041V12H65.7V5.05604L65.78 3.71204L65.044 5.05604L60.116 12H57.652V0.592041H60.02V7.56804L59.972 8.92804L60.612 7.68004L65.588 0.592041H68.068ZM72.739 12H70.387V0.592041H72.739V5.10404H74.931L78.531 0.592041H81.219L76.867 6.01604L81.379 12H78.611L75.059 7.23204H72.739V12ZM93.708 12H91.292L90.252 9.47204H85.02L84.028 12H81.58L86.38 0.592041H88.812L93.708 12ZM85.788 7.53604H89.452L87.596 2.99204L85.788 7.53604Z" fill="currentColor" />
    </symbol>

    <symbol id="eye-hidden" width="100%" height="100%" viewBox="0 0 24 24">
      <path fill-rule="evenodd" clip-rule="evenodd" d="M18.2371 15.1157C19.0484 14.3833 19.7137 13.6416 20.188 13.0657C20.5762 12.5944 20.7703 12.3588 20.7703 12C20.7703 11.6412 20.5762 11.4056 20.188 10.9343C18.768 9.21014 15.6357 6 12 6C11.1605 6 10.3479 6.17115 9.57695 6.45563L12.1238 9.00251C13.6822 9.06577 14.9342 10.3178 14.9975 11.8762L18.2371 15.1157ZM9.39308 10.5144C9.14295 10.9524 9.00001 11.4595 9.00001 12C9.00001 13.6569 10.3432 15 12 15C12.5405 15 13.0476 14.8571 13.4856 14.6069L15.7872 16.9085C14.636 17.5555 13.3529 18 12 18C8.36428 18 5.23207 14.7899 3.81198 13.0657C3.42382 12.5944 3.22974 12.3588 3.22974 12C3.22974 11.6412 3.42382 11.4056 3.81198 10.9343C4.48541 10.1167 5.54385 8.96489 6.85842 7.97974L9.39308 10.5144Z" fill="currentColor" />
      <path d="M5 2L21 18" fill="transparent" stroke="currentColor" stroke-width="2" />
    </symbol>

    <symbol id="eye-visible" width="100%" height="100%" viewBox="0 0 24 24">
      <path fill-rule="evenodd" clip-rule="evenodd" d="M20.7703 12C20.7703 11.6412 20.5762 11.4056 20.188 10.9343C18.768 9.21014 15.6357 6 12 6C8.36428 6 5.23207 9.21014 3.81198 10.9343C3.42382 11.4056 3.22974 11.6412 3.22974 12C3.22974 12.3588 3.42382 12.5944 3.81198 13.0657C5.23207 14.7899 8.36428 18 12 18C15.6357 18 18.768 14.7899 20.188 13.0657C20.5762 12.5944 20.7703 12.3588 20.7703 12ZM12 15C13.6569 15 15 13.6569 15 12C15 10.3431 13.6569 9 12 9C10.3432 9 9.00002 10.3431 9.00002 12C9.00002 13.6569 10.3432 15 12 15Z" fill="currentColor" />
    </symbol>

    <symbol id="arrow-left" width="100%" height="100%" viewBox="0 0 11 18">
      <path d="M3.76777 9L9.88388 2.88388C10.372 2.39573 10.372 1.60427 9.88388 1.11612C9.39573 0.627961 8.60427 0.627961 8.11612 1.11612L1.11612 8.11612C0.62796 8.60427 0.62796 9.39573 1.11612 9.88388L8.11612 16.8839C8.60427 17.372 9.39573 17.372 9.88388 16.8839C10.372 16.3957 10.372 15.6043 9.88388 15.1161L3.76777 9Z" fill="currentColor" />
    </symbol>

    <symbol id="arrow-right" width="100%" height="100%" viewBox="0 0 11 18">
      <path d="M7.23223 9L1.11612 2.88388C0.627961 2.39573 0.627961 1.60427 1.11612 1.11612C1.60427 0.627961 2.39573 0.627961 2.88388 1.11612L9.88388 8.11612C10.372 8.60427 10.372 9.39573 9.88388 9.88388L2.88388 16.8839C2.39573 17.372 1.60427 17.372 1.11612 16.8839C0.627961 16.3957 0.627961 15.6043 1.11612 15.1161L7.23223 9Z" fill="currentColor" />
    </symbol>

    <symbol id="user" width="100%" height="100%" viewBox="0 0 20 20">
      <path d="M16.3763 17.0045C16.837 16.9085 17.1114 16.4264 16.8825 16.0153C16.3778 15.1089 15.5828 14.3124 14.5658 13.7054C13.2559 12.9237 11.6511 12.5 10.0001 12.5C8.34905 12.5 6.74418 12.9237 5.43435 13.7054C4.41732 14.3124 3.6223 15.1089 3.11765 16.0153C2.88873 16.4264 3.1631 16.9085 3.62378 17.0045C7.82945 17.881 12.1707 17.881 16.3763 17.0045Z" fill="currentColor" />
      <circle cx="10" cy="6.66667" r="4.16667" fill="currentColor" />
    </symbol>

    <symbol id="users" width="100%" height="100%" viewBox="0 0 24 25">
      <circle cx="9" cy="6.5" r="4" fill="transparent" stroke="currentColor" stroke-width="1.5" />
      <path d="M15 9.5C16.6569 9.5 18 8.15685 18 6.5C18 4.84315 16.6569 3.5 15 3.5" fill="transparent" stroke="currentColor" stroke-width="1.5" stroke-linecap="round" />
      <ellipse cx="9" cy="17.5" rx="7" ry="4" fill="transparent" stroke="currentColor" stroke-width="1.5" />
      <path d="M18 14.5C19.7542 14.8847 21 15.8589 21 17C21 18.0293 19.9863 18.9229 18.5 19.3704" fill="transparent" stroke="currentColor" stroke-width="1.5" stroke-linecap="round" />
    </symbol>

    <symbol id="notification" width="100%" height="100%" viewBox="0 0 24 25">
      <path d="M22 11V12.5C22 17.214 22 19.5711 20.5355 21.0355C19.0711 22.5 16.714 22.5 12 22.5C7.28595 22.5 4.92893 22.5 3.46447 21.0355C2 19.5711 2 17.214 2 12.5C2 7.78595 2 5.42893 3.46447 3.96447C4.92893 2.5 7.28595 2.5 12 2.5H13.5" fill="transparent" stroke="currentColor" stroke-width="1.5" stroke-linecap="round" />
      <circle cx="19" cy="5.5" r="3" fill="transparent" stroke="currentColor" stroke-width="1.5" />
      <path d="M7 14.5H16" fill="transparent" stroke="currentColor" stroke-width="1.5" stroke-linecap="round" />
      <path d="M7 18H13" fill="transparent" stroke="currentColor" stroke-width="1.5" stroke-linecap="round" />
    </symbol>

    <symbol id="settings" width="100%" height="100%" viewBox="0 0 20 20">
      <path opacity="0.5" fill-rule="evenodd" clip-rule="evenodd" d="M10.3564 1.6665C9.42824 1.6665 8.58294 2.16709 6.89234 3.16827L6.32055 3.50688C4.62995 4.50806 3.78465 5.00865 3.32055 5.83317C2.85645 6.6577 2.85645 7.65887 2.85645 9.66122V10.3385C2.85645 12.3408 2.85645 13.342 3.32055 14.1665C3.78465 14.991 4.62995 15.4916 6.32055 16.4928L6.89234 16.8314C8.58294 17.8326 9.42824 18.3332 10.3564 18.3332C11.2846 18.3332 12.1299 17.8326 13.8205 16.8314L14.3923 16.4928C16.0829 15.4916 16.9282 14.991 17.3923 14.1665C17.8564 13.342 17.8564 12.3408 17.8564 10.3385V9.66122C17.8564 7.65887 17.8564 6.6577 17.3923 5.83317C16.9282 5.00865 16.0829 4.50806 14.3923 3.50688L13.8205 3.16827C12.1299 2.16709 11.2846 1.6665 10.3564 1.6665Z" fill="currentColor" />
      <path d="M10.3564 6.875C8.63056 6.875 7.23145 8.27411 7.23145 10C7.23145 11.7259 8.63056 13.125 10.3564 13.125C12.0823 13.125 13.4814 11.7259 13.4814 10C13.4814 8.27411 12.0823 6.875 10.3564 6.875Z" fill="currentColor" />
    </symbol>

    <symbol id="pallete" width="100%" height="100%" viewBox="0 0 20 20">
      <path opacity="0.5" d="M9.03907 18.2784C4.88936 17.8019 1.66675 14.2772 1.66675 9.99984C1.66675 5.39746 5.39771 1.6665 10.0001 1.6665C14.6025 1.6665 18.3334 5.39746 18.3334 9.99984C18.3334 14.297 15.5978 13.9436 13.2614 13.6417C11.9138 13.4677 10.6989 13.3107 10.2183 14.0731C9.88962 14.5945 10.2449 15.2447 10.6808 15.6805C11.2253 16.2251 11.2253 17.1079 10.6808 17.6525C10.2449 18.0883 9.65141 18.3487 9.03907 18.2784Z" fill="currentColor" />
      <path d="M9.23758 5.8335C9.23758 6.52385 8.67794 7.0835 7.98758 7.0835C7.29723 7.0835 6.73758 6.52385 6.73758 5.8335C6.73758 5.14314 7.29723 4.5835 7.98758 4.5835C8.67794 4.5835 9.23758 5.14314 9.23758 5.8335Z" fill="currentColor" />
      <path d="M5.41675 10.8337C6.1071 10.8337 6.66675 10.274 6.66675 9.58369C6.66675 8.89333 6.1071 8.33369 5.41675 8.33369C4.72639 8.33369 4.16675 8.89333 4.16675 9.58369C4.16675 10.274 4.72639 10.8337 5.41675 10.8337Z" fill="currentColor" />
      <path d="M14.5834 10.8337C15.2738 10.8337 15.8334 10.274 15.8334 9.58369C15.8334 8.89333 15.2738 8.33369 14.5834 8.33369C13.8931 8.33369 13.3334 8.89333 13.3334 9.58369C13.3334 10.274 13.8931 10.8337 14.5834 10.8337Z" fill="currentColor" />
      <path d="M12.0834 7.08369C12.7738 7.08369 13.3334 6.52404 13.3334 5.83369C13.3334 5.14333 12.7738 4.58369 12.0834 4.58369C11.3931 4.58369 10.8334 5.14333 10.8334 5.83369C10.8334 6.52404 11.3931 7.08369 12.0834 7.08369Z" fill="currentColor" />
    </symbol>

    <symbol id="arrow-back" width="100%" height="100%" viewBox="0 0 20 20">
      <path opacity="0.5" d="M10.0001 18.3332C5.39771 18.3332 1.66675 14.6022 1.66675 9.99984C1.66675 5.39746 5.39771 1.6665 10.0001 1.6665C14.6025 1.6665 18.3334 5.39746 18.3334 9.99984C18.3334 14.6022 14.6025 18.3332 10.0001 18.3332Z" fill="currentColor" />
      <path d="M8.72481 7.05806C8.96888 6.81398 9.36461 6.81398 9.60869 7.05806C9.85277 7.30214 9.85277 7.69786 9.60869 7.94194L8.17563 9.375H13.3334C13.6786 9.375 13.9584 9.65482 13.9584 10C13.9584 10.3452 13.6786 10.625 13.3334 10.625H8.17563L9.60869 12.0581C9.85277 12.3021 9.85277 12.6979 9.60869 12.9419C9.36461 13.186 8.96888 13.186 8.72481 12.9419L6.22481 10.4419C5.98073 10.1979 5.98073 9.80214 6.22481 9.55806L8.72481 7.05806Z" fill="currentColor" />
    </symbol>

    <symbol id="lock" width="100%" height="100%" viewBox="0 0 24 24">
      <path opacity="0.5" d="M2 16C2 13.1716 2 11.7574 2.87868 10.8787C3.75736 10 5.17157 10 8 10H16C18.8284 10 20.2426 10 21.1213 10.8787C22 11.7574 22 13.1716 22 16C22 18.8284 22 20.2426 21.1213 21.1213C20.2426 22 18.8284 22 16 22H8C5.17157 22 3.75736 22 2.87868 21.1213C2 20.2426 2 18.8284 2 16Z" fill="currentColor" />
      <path d="M12 18C13.1046 18 14 17.1046 14 16C14 14.8954 13.1046 14 12 14C10.8954 14 10 14.8954 10 16C10 17.1046 10.8954 18 12 18Z" fill="currentColor" />
      <path d="M6.75 8C6.75 5.10051 9.10051 2.75 12 2.75C14.4453 2.75 16.5018 4.42242 17.0846 6.68694C17.1879 7.08808 17.5968 7.32957 17.9979 7.22633C18.3991 7.12308 18.6405 6.7142 18.5373 6.31306C17.788 3.4019 15.1463 1.25 12 1.25C8.27208 1.25 5.25 4.27208 5.25 8V10.0546C5.68651 10.022 6.18264 10.0089 6.75 10.0036V8Z" fill="currentColor" />
    </symbol>

    <symbol id="clipboard" width="100%" height="100%" viewBox="0 0 24 24">
      <path opacity="0.5" d="M21 15.9983V9.99826C21 7.16983 21 5.75562 20.1213 4.87694C19.3529 4.10856 18.175 4.01211 16 4H8C5.82497 4.01211 4.64706 4.10856 3.87868 4.87694C3 5.75562 3 7.16983 3 9.99826V15.9983C3 18.8267 3 20.2409 3.87868 21.1196C4.75736 21.9983 6.17157 21.9983 9 21.9983H15C17.8284 21.9983 19.2426 21.9983 20.1213 21.1196C21 20.2409 21 18.8267 21 15.9983Z" fill="currentColor" />
      <path d="M8 3.5C8 2.67157 8.67157 2 9.5 2H14.5C15.3284 2 16 2.67157 16 3.5V4.5C16 5.32843 15.3284 6 14.5 6H9.5C8.67157 6 8 5.32843 8 4.5V3.5Z" fill="currentColor" />
      <path fill-rule="evenodd" clip-rule="evenodd" d="M6.25 10.5C6.25 10.0858 6.58579 9.75 7 9.75H7.5C7.91421 9.75 8.25 10.0858 8.25 10.5C8.25 10.9142 7.91421 11.25 7.5 11.25H7C6.58579 11.25 6.25 10.9142 6.25 10.5ZM9.75 10.5C9.75 10.0858 10.0858 9.75 10.5 9.75H17C17.4142 9.75 17.75 10.0858 17.75 10.5C17.75 10.9142 17.4142 11.25 17 11.25H10.5C10.0858 11.25 9.75 10.9142 9.75 10.5ZM6.25 14C6.25 13.5858 6.58579 13.25 7 13.25H7.5C7.91421 13.25 8.25 13.5858 8.25 14C8.25 14.4142 7.91421 14.75 7.5 14.75H7C6.58579 14.75 6.25 14.4142 6.25 14ZM9.75 14C9.75 13.5858 10.0858 13.25 10.5 13.25H17C17.4142 13.25 17.75 13.5858 17.75 14C17.75 14.4142 17.4142 14.75 17 14.75H10.5C10.0858 14.75 9.75 14.4142 9.75 14ZM6.25 17.5C6.25 17.0858 6.58579 16.75 7 16.75H7.5C7.91421 16.75 8.25 17.0858 8.25 17.5C8.25 17.9142 7.91421 18.25 7.5 18.25H7C6.58579 18.25 6.25 17.9142 6.25 17.5ZM9.75 17.5C9.75 17.0858 10.0858 16.75 10.5 16.75H17C17.4142 16.75 17.75 17.0858 17.75 17.5C17.75 17.9142 17.4142 18.25 17 18.25H10.5C10.0858 18.25 9.75 17.9142 9.75 17.5Z" fill="currentColor" />
    </symbol>

    <symbol id="case" width="100%" height="100%" viewBox="0 0 24 24">
      <path opacity="0.5" d="M10.5608 2.25C10.4473 2.24998 10.359 2.24997 10.2754 2.25503C9.21496 2.31926 8.28637 2.98855 7.89011 3.97425C7.85817 4.05369 7.82978 4.13863 7.79183 4.25251C7.70848 4.47684 7.51722 4.73199 7.24937 4.93586C7.21955 4.95855 7.18962 4.97999 7.15967 5.00017L9.10166 5C9.13053 4.94044 9.15714 4.87988 9.18129 4.81842L9.18284 4.81492L9.18701 4.80502L9.19188 4.7929L9.19646 4.78093L9.2001 4.77098L9.20188 4.76597L9.20612 4.75373L9.20995 4.74244L9.21204 4.73617L9.21477 4.72783L9.21701 4.72079L9.2188 4.71502C9.25763 4.59872 9.27031 4.56246 9.28185 4.53375C9.46197 4.08571 9.88406 3.78148 10.3661 3.75229C10.3983 3.75034 10.4379 3.75 10.5813 3.75H13.419C13.5624 3.75 13.6019 3.75034 13.6342 3.75229C14.1162 3.78148 14.5383 4.08571 14.7184 4.53375C14.7298 4.56204 14.7418 4.59698 14.7812 4.71499L14.783 4.72071L14.7852 4.72778L14.788 4.73614L14.7901 4.74239L14.7939 4.75366L14.7981 4.76588L14.7999 4.77089L14.8035 4.78081L14.8081 4.79271L14.8129 4.80471L14.817 4.81449L14.8186 4.81811C14.8428 4.87968 14.8694 4.94034 14.8984 5L16.8402 5.00017C16.8103 4.98 16.7804 4.95858 16.7506 4.93589C16.4828 4.73205 16.2916 4.47692 16.2082 4.25254L16.2052 4.24347C16.1693 4.13581 16.1414 4.05194 16.1101 3.97426C15.7139 2.98855 14.7853 2.31926 13.7248 2.25503C13.6413 2.24997 13.5529 2.24998 13.4394 2.25H10.5608Z" fill="currentColor" />
      <path fill-rule="evenodd" clip-rule="evenodd" d="M17.1923 5H6.80765C5.12027 5 4.27658 5 3.63268 5.32971C3.07242 5.61659 2.61659 6.07242 2.32971 6.63268C2 7.27658 2 8.12027 2 9.80765C2 10.2366 2 10.4511 2.07336 10.6319C2.13743 10.7898 2.24079 10.9288 2.37363 11.0355C2.52574 11.1577 2.73118 11.2194 3.14206 11.3426L8.5 12.95V14.1627C8.5 14.9283 8.95939 15.6341 9.68682 15.9296L10.2469 16.1572C11.3719 16.6143 12.6281 16.6143 13.7531 16.1572L14.3132 15.9296C15.0406 15.6341 15.5 14.9283 15.5 14.1627V12.95L20.8579 11.3426C21.2688 11.2194 21.4743 11.1577 21.6264 11.0355C21.7592 10.9288 21.8626 10.7898 21.9266 10.6319C22 10.4511 22 10.2366 22 9.80765C22 8.12027 22 7.27658 21.6703 6.63268C21.3834 6.07242 20.9276 5.61659 20.3673 5.32971C19.7234 5 18.8797 5 17.1923 5ZM13.6 12H10.4C10.1791 12 10 12.1819 10 12.4063V14.1627C10 14.3288 10.0996 14.4782 10.2514 14.54L10.8116 14.7675C11.5745 15.0775 12.4255 15.0775 13.1885 14.7675L13.7486 14.54C13.9004 14.4782 14 14.3288 14 14.1627V12.4063C14 12.1819 13.8209 12 13.6 12Z" fill="currentColor" />
      <path opacity="0.5" d="M3 11.2998C3.04446 11.3133 3.09172 11.3275 3.14206 11.3426L8.5 12.9499V14.1627C8.5 14.9283 8.95939 15.634 9.68682 15.9296L10.2469 16.1571C11.3719 16.6142 12.6281 16.6142 13.7531 16.1571L14.3132 15.9296C15.0406 15.634 15.5 14.9283 15.5 14.1627V12.9499L20.8579 11.3426C20.9083 11.3275 20.9555 11.3133 21 11.2998V12.2999C20.9991 15.9752 20.9651 19.6879 19.682 20.8284C18.3639 22 16.2426 22 12 22C7.75733 22 5.63601 22 4.318 20.8284C3.03489 19.6879 3.0009 15.9752 3 12.2999V11.2998Z" fill="currentColor" />
    </symbol>

    <symbol id="medal" width="100%" height="100%" viewBox="0 0 24 24">
      <path opacity="0.5" d="M12.7949 2H10.7949C8.9093 2 7.96649 2 7.38071 2.58579C6.79492 3.17157 6.79492 4.11438 6.79492 6V8V9.5H16.7949V8V6C16.7949 4.11438 16.7949 3.17157 16.2091 2.58579C15.6233 2 14.6805 2 12.7949 2Z" fill="currentColor" />
      <path fill-rule="evenodd" clip-rule="evenodd" d="M13.2304 5.78311C12.3352 5.29495 11.2533 5.29495 10.358 5.78311L5.56381 8.39728C4.59982 8.92292 4 9.93319 4 11.0312V15.9688C4 17.0668 4.59982 18.0771 5.56381 18.6027L10.358 21.2169C11.2533 21.705 12.3352 21.705 13.2304 21.2169L18.0246 18.6027C18.9886 18.0771 19.5885 17.0668 19.5885 15.9688V11.0312C19.5885 9.93319 18.9886 8.92292 18.0246 8.39728L13.2304 5.78311ZM11.7944 10.5C11.5104 10.5 11.3204 10.8408 10.9404 11.5225L10.8421 11.6989C10.7341 11.8926 10.6801 11.9894 10.5959 12.0533C10.5117 12.1172 10.4069 12.141 10.1972 12.1884L10.0063 12.2316C9.26839 12.3986 8.89944 12.482 8.81166 12.7643C8.72388 13.0466 8.97541 13.3407 9.47846 13.929L9.60861 14.0812C9.75156 14.2483 9.82304 14.3319 9.85519 14.4353C9.88735 14.5387 9.87654 14.6502 9.85493 14.8733L9.83525 15.0763C9.7592 15.8612 9.72117 16.2536 9.95098 16.4281C10.1808 16.6025 10.5262 16.4435 11.2171 16.1254L11.3959 16.0431C11.5922 15.9527 11.6904 15.9075 11.7944 15.9075C11.8985 15.9075 11.9967 15.9527 12.193 16.0431L12.3717 16.1254C13.0626 16.4435 13.4081 16.6025 13.6379 16.4281C13.8677 16.2536 13.8297 15.8612 13.7536 15.0763L13.7339 14.8733C13.7123 14.6502 13.7015 14.5387 13.7337 14.4353C13.7658 14.3319 13.8373 14.2483 13.9802 14.0812L14.1104 13.929C14.6135 13.3407 14.865 13.0466 14.7772 12.7643C14.6894 12.482 14.3205 12.3986 13.5826 12.2316L13.3917 12.1884C13.182 12.141 13.0771 12.1172 12.993 12.0533C12.9088 11.9894 12.8548 11.8926 12.7468 11.6989L12.6485 11.5225C12.2685 10.8408 12.0785 10.5 11.7944 10.5Z" fill="currentColor" />
    </symbol>

    <symbol id="trash" width="100%" height="100%" viewBox="0 0 24 24">
      <path d="M3 6.38597C3 5.90152 3.34538 5.50879 3.77143 5.50879L6.43567 5.50832C6.96502 5.49306 7.43202 5.11033 7.61214 4.54412C7.61688 4.52923 7.62232 4.51087 7.64185 4.44424L7.75665 4.05256C7.8269 3.81241 7.8881 3.60318 7.97375 3.41617C8.31209 2.67736 8.93808 2.16432 9.66147 2.03297C9.84457 1.99972 10.0385 1.99986 10.2611 2.00002H13.7391C13.9617 1.99986 14.1556 1.99972 14.3387 2.03297C15.0621 2.16432 15.6881 2.67736 16.0264 3.41617C16.1121 3.60318 16.1733 3.81241 16.2435 4.05256L16.3583 4.44424C16.3778 4.51087 16.3833 4.52923 16.388 4.54412C16.5682 5.11033 17.1278 5.49353 17.6571 5.50879H20.2286C20.6546 5.50879 21 5.90152 21 6.38597C21 6.87043 20.6546 7.26316 20.2286 7.26316H3.77143C3.34538 7.26316 3 6.87043 3 6.38597Z" fill="currentColor" />
      <path fill-rule="evenodd" clip-rule="evenodd" d="M9.42543 11.4815C9.83759 11.4381 10.2051 11.7547 10.2463 12.1885L10.7463 17.4517C10.7875 17.8855 10.4868 18.2724 10.0747 18.3158C9.66253 18.3592 9.29499 18.0426 9.25378 17.6088L8.75378 12.3456C8.71256 11.9118 9.01327 11.5249 9.42543 11.4815Z" fill="currentColor" />
      <path fill-rule="evenodd" clip-rule="evenodd" d="M14.5747 11.4815C14.9868 11.5249 15.2875 11.9118 15.2463 12.3456L14.7463 17.6088C14.7051 18.0426 14.3376 18.3592 13.9254 18.3158C13.5133 18.2724 13.2126 17.8855 13.2538 17.4517L13.7538 12.1885C13.795 11.7547 14.1625 11.4381 14.5747 11.4815Z" fill="currentColor" />
      <path opacity="0.5" d="M11.5956 22.0001H12.4044C15.1871 22.0001 16.5785 22.0001 17.4831 21.1142C18.3878 20.2283 18.4803 18.7751 18.6654 15.8686L18.9321 11.6807C19.0326 10.1037 19.0828 9.31524 18.6289 8.81558C18.1751 8.31592 17.4087 8.31592 15.876 8.31592H8.12405C6.59127 8.31592 5.82488 8.31592 5.37105 8.81558C4.91722 9.31524 4.96744 10.1037 5.06788 11.6807L5.33459 15.8686C5.5197 18.7751 5.61225 20.2283 6.51689 21.1142C7.42153 22.0001 8.81289 22.0001 11.5956 22.0001Z" fill="currentColor" />
    </symbol>

    <symbol id="plus" width="100%" height="100%" viewBox="0 0 24 24">
      <path opacity="0.5" d="M22 12C22 17.5228 17.5228 22 12 22C6.47715 22 2 17.5228 2 12C2 6.47715 6.47715 2 12 2C17.5228 2 22 6.47715 22 12Z" fill="currentColor" />
      <path d="M12.75 9C12.75 8.58579 12.4142 8.25 12 8.25C11.5858 8.25 11.25 8.58579 11.25 9L11.25 11.25H9C8.58579 11.25 8.25 11.5858 8.25 12C8.25 12.4142 8.58579 12.75 9 12.75H11.25V15C11.25 15.4142 11.5858 15.75 12 15.75C12.4142 15.75 12.75 15.4142 12.75 15L12.75 12.75H15C15.4142 12.75 15.75 12.4142 15.75 12C15.75 11.5858 15.4142 11.25 15 11.25H12.75V9Z" fill="currentColor" />
    </symbol>

    <symbol id="hourglass" width="100%" height="100%" viewBox="0 0 18 18">
      <path fill-rule="evenodd" clip-rule="evenodd" d="M9 1.5C5.90023 1.5 4.35035 1.5 3.89869 2.47439C3.85986 2.55814 3.82711 2.64514 3.80074 2.73457C3.49392 3.77497 4.58986 4.98083 6.78173 7.39256L8.25 9H9.75L11.2183 7.39256C13.4101 4.98083 14.5061 3.77497 14.1993 2.73457C14.1729 2.64514 14.1401 2.55814 14.1013 2.47439C13.6497 1.5 12.0998 1.5 9 1.5Z" fill="currentColor" />
      <path opacity="0.5" d="M3.89869 15.5256C4.35035 16.5 5.90023 16.5 9 16.5C12.0998 16.5 13.6497 16.5 14.1013 15.5256C14.1401 15.4419 14.1729 15.3549 14.1993 15.2654C14.5061 14.225 13.4101 13.0192 11.2183 10.6074L9.75 9H8.25L6.78173 10.6074C4.58986 13.0192 3.49392 14.225 3.80074 15.2654C3.82711 15.3549 3.85986 15.4419 3.89869 15.5256Z" fill="currentColor" />
    </symbol>

    <symbol id="search" width="100%" height="100%" viewBox="0 0 24 24">
      <circle cx="11.5" cy="11.5" r="9.5" fill="transparent" stroke="currentColor" stroke-width="1.5" />
      <path d="M18.5 18.5L22 22" fill="transparent" stroke="currentColor" stroke-width="1.5" stroke-linecap="round" />
    </symbol>

    <symbol id="filter" width="100%" height="100%" viewBox="0 0 24 24">
      <path d="M9.5 14C11.1569 14 12.5 15.3431 12.5 17C12.5 18.6568 11.1569 20 9.5 20C7.84315 20 6.5 18.6568 6.5 17C6.5 15.3431 7.84315 14 9.5 14Z" fill="transparent" stroke="currentColor" stroke-width="1.5" />
      <path d="M14.5 3.99998C12.8431 3.99998 11.5 5.34312 11.5 6.99998C11.5 8.65683 12.8431 9.99998 14.5 9.99998C16.1569 9.99998 17.5 8.65683 17.5 6.99998C17.5 5.34312 16.1569 3.99998 14.5 3.99998Z" fill="transparent" stroke="currentColor" stroke-width="1.5" />
      <path d="M15 16.9585L22 16.9585" fill="transparent" stroke="currentColor" stroke-width="1.5" stroke-linecap="round" />
      <path d="M9 6.9585L2 6.9585" fill="transparent" stroke="currentColor" stroke-width="1.5" stroke-linecap="round" />
      <path d="M2 16.9585L4 16.9585" fill="transparent" stroke="currentColor" stroke-width="1.5" stroke-linecap="round" />
      <path d="M22 6.9585L20 6.9585" fill="transparent" stroke="currentColor" stroke-width="1.5" stroke-linecap="round" />
    </symbol>

    <symbol id="burger" width="100%" height="100%" viewBox="0 0 24 24">
      <path d="M20 7L4 7" fill="transparent" stroke="currentColor" stroke-width="1.5" stroke-linecap="round" />
      <path d="M20 12L4 12" fill="transparent" stroke="currentColor" stroke-width="1.5" stroke-linecap="round" />
      <path d="M20 17L4 17" fill="transparent" stroke="currentColor" stroke-width="1.5" stroke-linecap="round" />
    </symbol>

    <symbol id="copy" width="100%" height="100%" viewBox="0 0 24 24">
      <path d="M14.1625 18.4876L13.4417 19.2085C11.053 21.5972 7.18019 21.5972 4.79151 19.2085C2.40283 16.8198 2.40283 12.947 4.79151 10.5583L5.51236 9.83746" fill="transparent" stroke="currentColor" stroke-width="2" stroke-linecap="round" />
      <path d="M9.8374 14.1625L14.1625 9.8374" fill="transparent" stroke="currentColor" stroke-width="2" stroke-linecap="round" />
      <path d="M9.8374 5.51236L10.5583 4.79151C12.9469 2.40283 16.8198 2.40283 19.2084 4.79151C21.5971 7.18019 21.5971 11.053 19.2084 13.4417L18.4876 14.1625" fill="transparent" stroke="currentColor" stroke-width="2" stroke-linecap="round" />
    </symbol>

    <symbol id="download" width="100%" height="100%" viewBox="0 0 24 24">
      <path d="M13.1053 4.1087C13.1053 3.49638 12.6104 3 12 3C11.3896 3 10.8947 3.49638 10.8947 4.1087L10.8947 11.7799L8.36049 9.23777C7.92885 8.8048 7.22904 8.8048 6.79741 9.23777C6.36578 9.67075 6.36578 10.3727 6.79741 10.8057L11.2185 15.2405C11.4257 15.4484 11.7069 15.5652 12 15.5652C12.2931 15.5652 12.5743 15.4484 12.7815 15.2405L17.2026 10.8057C17.6342 10.3727 17.6342 9.67074 17.2026 9.23777C16.771 8.8048 16.0711 8.8048 15.6395 9.23777L13.1053 11.7799V4.1087Z" fill="currentColor" />
      <path d="M6.10526 17.7826C5.49484 17.7826 5 18.279 5 18.8913C5 19.5036 5.49484 20 6.10526 20H17.8947C18.5052 20 19 19.5036 19 18.8913C19 18.279 18.5052 17.7826 17.8947 17.7826H6.10526Z" fill="currentColor" />
    </symbol>

    <symbol id="dots" width="100%" height="100%" viewBox="0 0 24 24">
      <path d="M7 12C7 13.1046 6.10457 14 5 14C3.89543 14 3 13.1046 3 12C3 10.8954 3.89543 10 5 10C6.10457 10 7 10.8954 7 12Z" fill="currentColor" />
      <path d="M14 12C14 13.1046 13.1046 14 12 14C10.8954 14 10 13.1046 10 12C10 10.8954 10.8954 10 12 10C13.1046 10 14 10.8954 14 12Z" fill="currentColor" />
      <path d="M21 12C21 13.1046 20.1046 14 19 14C17.8954 14 17 13.1046 17 12C17 10.8954 17.8954 10 19 10C20.1046 10 21 10.8954 21 12Z" fill="currentColor" />
    </symbol>

  </defs>
</svg>