<?xml version="1.0"?>
<svg xmlns="http://www.w3.org/2000/svg" xmlns:xlink="http://www.w3.org/1999/xlink" version="1.1" xml:space="preserve">
  <defs>

    <symbol id="loader" width="100%" height="100%" viewBox="22 22 44 44">
      <circle cx="44" cy="44" r="20.2" fill="transparent" stroke="currentColor" stroke-width="4"></circle>
    </symbol>

    <symbol id="logo" width="100%" height="100%" viewBox="0 0 113 32">
      <path d="M39.9578 11.7778H35.5388V7.68889C35.5388 5.28889 34.3014 3.86667 32.2687 3.86667C30.2359 3.86667 29.0428 5.28889 29.0428 7.68889V9.42222C29.0428 11.8222 29.8824 12.9333 33.3734 14.3556L35.1411 15.0222C38.7204 16.4 40.0462 18.5778 40.0462 23.1556V24C40.0462 29.0225 37.1296 32 32.2245 32C27.3194 32 24.5354 29.0667 24.5354 24V20.2222H28.9544V24.3111C28.9544 26.7111 30.1917 28.1333 32.2687 28.1333C34.3898 28.1333 35.6272 26.7111 35.6272 24.3111V22.4444C35.6272 20.0444 34.7433 18.9333 31.3849 17.5556L29.4405 16.8444C25.9937 15.4667 24.6238 13.1556 24.6238 8.66667V8C24.6238 2.88889 27.4078 0 32.2245 0C37.0854 0 39.9578 2.97778 39.9578 8V11.7778Z" fill="currentColor" />
      <path d="M55.841 0.444824V4.31149H50.7594V31.5559H46.3404V4.31149H41.2585V0.444824H55.841Z" fill="currentColor" />
      <path d="M57.637 0.444824H65.0163C69.5237 0.444824 72.8822 2.71149 72.8822 8.13371V23.8671C72.8822 29.3337 69.5237 31.5559 65.0163 31.5559H57.637V0.444824ZM62.0555 4.31149V27.6893H64.9721C66.8281 27.6893 68.4189 26.8004 68.4189 23.9115V8.08927C68.4189 5.20038 66.8281 4.31149 64.9721 4.31149H62.0555Z" fill="currentColor" />
      <path d="M79.6185 0.399902V14.0443H80.3256L85.2307 0.399902H89.9591L83.9492 15.9999L90.6661 31.5555H85.9378L80.3256 17.9555H79.6185V31.5555H75.1995V0.399902H79.6185Z" fill="currentColor" />
      <path d="M92.2024 0.444824H96.6214V31.5559H92.2024V0.444824Z" fill="currentColor" />
      <path d="M112.762 0.444824V4.31149H107.68V31.5559H103.261V4.31149H98.179V0.444824H112.762Z" fill="currentColor" />
      <path d="M6.86523 31.5558L18.379 0.483887H22.6555L11.1418 31.5558H6.86523Z" fill="currentColor" />
      <path d="M0 31.5558L11.5138 0.483887H15.7903L4.27654 31.5558H0Z" fill="currentColor" />
    </symbol>

    <symbol id="practice" width="100%" height="100%" viewBox="0 0 94 12">
      <path d="M2.51997 12H0.151978V0.592041H10.28V12H7.91198V2.73604H2.51997V12ZM22.6215 4.52804C22.6215 5.79737 22.1948 6.76804 21.3415 7.44004C20.4988 8.11204 19.2775 8.44271 17.6775 8.43204H14.9095V12H12.6055V0.592041H17.5175C19.2242 0.592041 20.4988 0.922708 21.3415 1.58404C22.1948 2.23471 22.6215 3.21604 22.6215 4.52804ZM20.2695 4.51204C20.2695 3.84004 20.0508 3.34937 19.6135 3.04004C19.1762 2.73071 18.4828 2.57604 17.5335 2.57604H14.9095V6.44804H17.5975C18.5148 6.44804 19.1868 6.29337 19.6135 5.98404C20.0508 5.66404 20.2695 5.17337 20.2695 4.51204ZM34.083 12H31.667L30.627 9.47204H25.395L24.403 12H21.955L26.755 0.592041H29.187L34.083 12ZM26.163 7.53604H29.827L27.971 2.99204L26.163 7.53604ZM37.661 12H35.3086V0.592041H37.661V5.10404H39.853L43.453 0.592041H46.141L41.789 6.01604L46.301 12H43.533L39.981 7.23204H37.661V12ZM52.449 2.67204V12H50.017V2.67204H46.449V0.592041H56.017V2.67204H52.449ZM68.068 0.592041V12H65.7V5.05604L65.78 3.71204L65.044 5.05604L60.116 12H57.652V0.592041H60.02V7.56804L59.972 8.92804L60.612 7.68004L65.588 0.592041H68.068ZM72.739 12H70.387V0.592041H72.739V5.10404H74.931L78.531 0.592041H81.219L76.867 6.01604L81.379 12H78.611L75.059 7.23204H72.739V12ZM93.708 12H91.292L90.252 9.47204H85.02L84.028 12H81.58L86.38 0.592041H88.812L93.708 12ZM85.788 7.53604H89.452L87.596 2.99204L85.788 7.53604Z" fill="currentColor" />
    </symbol>

    <symbol id="eye-hidden" width="100%" height="100%" viewBox="0 0 24 24">
      <path fill-rule="evenodd" clip-rule="evenodd" d="M18.2371 15.1157C19.0484 14.3833 19.7137 13.6416 20.188 13.0657C20.5762 12.5944 20.7703 12.3588 20.7703 12C20.7703 11.6412 20.5762 11.4056 20.188 10.9343C18.768 9.21014 15.6357 6 12 6C11.1605 6 10.3479 6.17115 9.57695 6.45563L12.1238 9.00251C13.6822 9.06577 14.9342 10.3178 14.9975 11.8762L18.2371 15.1157ZM9.39308 10.5144C9.14295 10.9524 9.00001 11.4595 9.00001 12C9.00001 13.6569 10.3432 15 12 15C12.5405 15 13.0476 14.8571 13.4856 14.6069L15.7872 16.9085C14.636 17.5555 13.3529 18 12 18C8.36428 18 5.23207 14.7899 3.81198 13.0657C3.42382 12.5944 3.22974 12.3588 3.22974 12C3.22974 11.6412 3.42382 11.4056 3.81198 10.9343C4.48541 10.1167 5.54385 8.96489 6.85842 7.97974L9.39308 10.5144Z" fill="currentColor" />
      <path d="M5 2L21 18" fill="transparent" stroke="currentColor" stroke-width="2" />
    </symbol>

    <symbol id="eye-visible" width="100%" height="100%" viewBox="0 0 24 24">
      <path fill-rule="evenodd" clip-rule="evenodd" d="M20.7703 12C20.7703 11.6412 20.5762 11.4056 20.188 10.9343C18.768 9.21014 15.6357 6 12 6C8.36428 6 5.23207 9.21014 3.81198 10.9343C3.42382 11.4056 3.22974 11.6412 3.22974 12C3.22974 12.3588 3.42382 12.5944 3.81198 13.0657C5.23207 14.7899 8.36428 18 12 18C15.6357 18 18.768 14.7899 20.188 13.0657C20.5762 12.5944 20.7703 12.3588 20.7703 12ZM12 15C13.6569 15 15 13.6569 15 12C15 10.3431 13.6569 9 12 9C10.3432 9 9.00002 10.3431 9.00002 12C9.00002 13.6569 10.3432 15 12 15Z" fill="currentColor" />
    </symbol>

    <symbol id="arrow-left" width="100%" height="100%" viewBox="0 0 11 18">
      <path d="M3.76777 9L9.88388 2.88388C10.372 2.39573 10.372 1.60427 9.88388 1.11612C9.39573 0.627961 8.60427 0.627961 8.11612 1.11612L1.11612 8.11612C0.62796 8.60427 0.62796 9.39573 1.11612 9.88388L8.11612 16.8839C8.60427 17.372 9.39573 17.372 9.88388 16.8839C10.372 16.3957 10.372 15.6043 9.88388 15.1161L3.76777 9Z" fill="currentColor" />
    </symbol>

    <symbol id="arrow-right" width="100%" height="100%" viewBox="0 0 11 18">
      <path d="M7.23223 9L1.11612 2.88388C0.627961 2.39573 0.627961 1.60427 1.11612 1.11612C1.60427 0.627961 2.39573 0.627961 2.88388 1.11612L9.88388 8.11612C10.372 8.60427 10.372 9.39573 9.88388 9.88388L2.88388 16.8839C2.39573 17.372 1.60427 17.372 1.11612 16.8839C0.627961 16.3957 0.627961 15.6043 1.11612 15.1161L7.23223 9Z" fill="currentColor" />
    </symbol>

    <symbol id="user" width="100%" height="100%" viewBox="0 0 20 20">
      <path d="M16.3763 17.0045C16.837 16.9085 17.1114 16.4264 16.8825 16.0153C16.3778 15.1089 15.5828 14.3124 14.5658 13.7054C13.2559 12.9237 11.6511 12.5 10.0001 12.5C8.34905 12.5 6.74418 12.9237 5.43435 13.7054C4.41732 14.3124 3.6223 15.1089 3.11765 16.0153C2.88873 16.4264 3.1631 16.9085 3.62378 17.0045C7.82945 17.881 12.1707 17.881 16.3763 17.0045Z" fill="currentColor" />
      <circle cx="10" cy="6.66667" r="4.16667" fill="currentColor" />
    </symbol>

    <symbol id="users" width="100%" height="100%" viewBox="0 0 24 25">
      <circle cx="9" cy="6.5" r="4" fill="transparent" stroke="currentColor" stroke-width="1.5" />
      <path d="M15 9.5C16.6569 9.5 18 8.15685 18 6.5C18 4.84315 16.6569 3.5 15 3.5" fill="transparent" stroke="currentColor" stroke-width="1.5" stroke-linecap="round" />
      <ellipse cx="9" cy="17.5" rx="7" ry="4" fill="transparent" stroke="currentColor" stroke-width="1.5" />
      <path d="M18 14.5C19.7542 14.8847 21 15.8589 21 17C21 18.0293 19.9863 18.9229 18.5 19.3704" fill="transparent" stroke="currentColor" stroke-width="1.5" stroke-linecap="round" />
    </symbol>

    <symbol id="notification" width="100%" height="100%" viewBox="0 0 24 25">
      <path d="M22 11V12.5C22 17.214 22 19.5711 20.5355 21.0355C19.0711 22.5 16.714 22.5 12 22.5C7.28595 22.5 4.92893 22.5 3.46447 21.0355C2 19.5711 2 17.214 2 12.5C2 7.78595 2 5.42893 3.46447 3.96447C4.92893 2.5 7.28595 2.5 12 2.5H13.5" fill="transparent" stroke="currentColor" stroke-width="1.5" stroke-linecap="round" />
      <circle cx="19" cy="5.5" r="3" fill="transparent" stroke="currentColor" stroke-width="1.5" />
      <path d="M7 14.5H16" fill="transparent" stroke="currentColor" stroke-width="1.5" stroke-linecap="round" />
      <path d="M7 18H13" fill="transparent" stroke="currentColor" stroke-width="1.5" stroke-linecap="round" />
    </symbol>

    <symbol id="settings" width="100%" height="100%" viewBox="0 0 20 20">
      <path opacity="0.5" fill-rule="evenodd" clip-rule="evenodd" d="M10.3564 1.6665C9.42824 1.6665 8.58294 2.16709 6.89234 3.16827L6.32055 3.50688C4.62995 4.50806 3.78465 5.00865 3.32055 5.83317C2.85645 6.6577 2.85645 7.65887 2.85645 9.66122V10.3385C2.85645 12.3408 2.85645 13.342 3.32055 14.1665C3.78465 14.991 4.62995 15.4916 6.32055 16.4928L6.89234 16.8314C8.58294 17.8326 9.42824 18.3332 10.3564 18.3332C11.2846 18.3332 12.1299 17.8326 13.8205 16.8314L14.3923 16.4928C16.0829 15.4916 16.9282 14.991 17.3923 14.1665C17.8564 13.342 17.8564 12.3408 17.8564 10.3385V9.66122C17.8564 7.65887 17.8564 6.6577 17.3923 5.83317C16.9282 5.00865 16.0829 4.50806 14.3923 3.50688L13.8205 3.16827C12.1299 2.16709 11.2846 1.6665 10.3564 1.6665Z" fill="currentColor" />
      <path d="M10.3564 6.875C8.63056 6.875 7.23145 8.27411 7.23145 10C7.23145 11.7259 8.63056 13.125 10.3564 13.125C12.0823 13.125 13.4814 11.7259 13.4814 10C13.4814 8.27411 12.0823 6.875 10.3564 6.875Z" fill="currentColor" />
    </symbol>

    <symbol id="pallete" width="100%" height="100%" viewBox="0 0 20 20">
      <path opacity="0.5" d="M9.03907 18.2784C4.88936 17.8019 1.66675 14.2772 1.66675 9.99984C1.66675 5.39746 5.39771 1.6665 10.0001 1.6665C14.6025 1.6665 18.3334 5.39746 18.3334 9.99984C18.3334 14.297 15.5978 13.9436 13.2614 13.6417C11.9138 13.4677 10.6989 13.3107 10.2183 14.0731C9.88962 14.5945 10.2449 15.2447 10.6808 15.6805C11.2253 16.2251 11.2253 17.1079 10.6808 17.6525C10.2449 18.0883 9.65141 18.3487 9.03907 18.2784Z" fill="currentColor" />
      <path d="M9.23758 5.8335C9.23758 6.52385 8.67794 7.0835 7.98758 7.0835C7.29723 7.0835 6.73758 6.52385 6.73758 5.8335C6.73758 5.14314 7.29723 4.5835 7.98758 4.5835C8.67794 4.5835 9.23758 5.14314 9.23758 5.8335Z" fill="currentColor" />
      <path d="M5.41675 10.8337C6.1071 10.8337 6.66675 10.274 6.66675 9.58369C6.66675 8.89333 6.1071 8.33369 5.41675 8.33369C4.72639 8.33369 4.16675 8.89333 4.16675 9.58369C4.16675 10.274 4.72639 10.8337 5.41675 10.8337Z" fill="currentColor" />
      <path d="M14.5834 10.8337C15.2738 10.8337 15.8334 10.274 15.8334 9.58369C15.8334 8.89333 15.2738 8.33369 14.5834 8.33369C13.8931 8.33369 13.3334 8.89333 13.3334 9.58369C13.3334 10.274 13.8931 10.8337 14.5834 10.8337Z" fill="currentColor" />
      <path d="M12.0834 7.08369C12.7738 7.08369 13.3334 6.52404 13.3334 5.83369C13.3334 5.14333 12.7738 4.58369 12.0834 4.58369C11.3931 4.58369 10.8334 5.14333 10.8334 5.83369C10.8334 6.52404 11.3931 7.08369 12.0834 7.08369Z" fill="currentColor" />
    </symbol>

    <symbol id="arrow-back" width="100%" height="100%" viewBox="0 0 20 20">
      <path opacity="0.5" d="M10.0001 18.3332C5.39771 18.3332 1.66675 14.6022 1.66675 9.99984C1.66675 5.39746 5.39771 1.6665 10.0001 1.6665C14.6025 1.6665 18.3334 5.39746 18.3334 9.99984C18.3334 14.6022 14.6025 18.3332 10.0001 18.3332Z" fill="currentColor" />
      <path d="M8.72481 7.05806C8.96888 6.81398 9.36461 6.81398 9.60869 7.05806C9.85277 7.30214 9.85277 7.69786 9.60869 7.94194L8.17563 9.375H13.3334C13.6786 9.375 13.9584 9.65482 13.9584 10C13.9584 10.3452 13.6786 10.625 13.3334 10.625H8.17563L9.60869 12.0581C9.85277 12.3021 9.85277 12.6979 9.60869 12.9419C9.36461 13.186 8.96888 13.186 8.72481 12.9419L6.22481 10.4419C5.98073 10.1979 5.98073 9.80214 6.22481 9.55806L8.72481 7.05806Z" fill="currentColor" />
    </symbol>

  </defs>
</svg>