<?xml version="1.0" standalone="no"?>
<!DOCTYPE svg PUBLIC "-//W3C//DTD SVG 20010904//EN"
 "http://www.w3.org/TR/2001/REC-SVG-20010904/DTD/svg10.dtd">
<svg version="1.0" xmlns="http://www.w3.org/2000/svg"
 width="264.000000pt" height="264.000000pt" viewBox="0 0 264.000000 264.000000"
 preserveAspectRatio="xMidYMid meet">
<metadata>
Created by potrace 1.14, written by Peter Selinger 2001-2017
</metadata>
<g transform="translate(0.000000,264.000000) scale(0.100000,-0.100000)"
fill="#000000" stroke="none">
<path d="M144 2616 c-59 -27 -116 -90 -132 -145 -9 -28 -12 -337 -12 -1157 l0
-1119 24 -51 c27 -59 90 -116 145 -132 28 -9 337 -12 1157 -12 l1119 0 51 24
c59 27 116 90 132 145 9 28 12 337 12 1157 l0 1119 -24 51 c-27 59 -90 116
-145 132 -28 9 -337 12 -1157 12 l-1119 0 -51 -24z m1667 -388 c-5 -13 -158
-428 -341 -923 -183 -495 -335 -903 -339 -908 -4 -4 -75 -6 -158 -5 l-150 3
336 910 c185 501 340 918 344 928 6 15 23 17 161 17 l156 0 -9 -22z"/>
</g>
</svg>
